<?xml version="1.0" standalone="no"?>
<!DOCTYPE svg PUBLIC "-//W3C//DTD SVG 20010904//EN"
 "http://www.w3.org/TR/2001/REC-SVG-20010904/DTD/svg10.dtd">
<svg version="1.0" xmlns="http://www.w3.org/2000/svg"
 width="250.000000pt" height="250.000000pt" viewBox="0 0 250.000000 250.000000"
 preserveAspectRatio="xMidYMid meet">
<metadata>
Created by potrace 1.11, written by Peter Selinger 2001-2013
</metadata>
<g transform="translate(0.000000,250.000000) scale(0.100000,-0.100000)"
fill="#000000" stroke="none">
<path d="M625 2438 c-265 -166 -464 -420 -558 -714 -14 -44 -28 -92 -31 -109
-14 -68 -17 -83 -25 -140 -9 -60 -7 -322 3 -380 12 -76 20 -106 48 -195 85
-267 247 -496 468 -659 82 -61 118 -83 211 -127 l45 -21 0 793 c0 437 -2 794
-5 794 -3 0 -73 -58 -156 -128 l-150 -128 0 -391 0 -392 -28 27 c-66 63 -182
286 -235 452 -44 137 -59 235 -57 358 5 252 68 459 202 661 67 101 203 240
288 295 72 47 69 45 64 50 -2 2 -40 -19 -84 -46z"/>
<path d="M1794 2477 c268 -173 453 -432 521 -732 23 -98 26 -124 29 -265 5
-182 -34 -350 -125 -547 -63 -137 -201 -332 -217 -306 -4 6 -7 187 -6 403 l1
392 -102 87 c-145 123 -196 166 -204 169 -3 1 -6 -357 -6 -795 0 -701 2 -798
15 -795 8 2 50 21 93 42 219 110 401 285 535 516 52 91 125 309 148 444 25
148 24 355 -1 480 -3 14 -7 35 -9 46 -2 12 -21 71 -41 130 -92 277 -268 505
-515 668 -52 35 -104 66 -115 69 -19 6 -19 6 -1 -6z"/>
<path d="M1135 1984 c-22 -19 -89 -77 -150 -128 l-110 -93 0 -853 1 -853 74
-19 c41 -10 93 -20 115 -23 22 -3 59 -8 83 -11 l42 -6 0 1011 c0 556 -3 1011
-7 1011 -5 -1 -26 -17 -48 -36z"/>
<path d="M1280 1009 l0 -1010 73 6 c76 7 146 19 206 35 l36 9 -1 848 c-1 466
-2 853 -3 859 -1 11 -294 264 -305 264 -3 0 -6 -455 -6 -1011z"/>
</g>
</svg>
