<?xml version="1.0"?>
<svg xmlns="http://www.w3.org/2000/svg" xmlns:xlink="http://www.w3.org/1999/xlink" xmlns:svgjs="http://svgjs.com/svgjs" version="1.1" width="512" height="512" x="0" y="0" viewBox="0 0 511.854 511.854" style="enable-background:new 0 0 512 512" xml:space="preserve" class=""><g><g xmlns="http://www.w3.org/2000/svg"><path d="m368.927 220.854h94v166h-94z" fill="#ffffff" data-original="#000000" style="" class=""/><path d="m208.927 220.854h94v166h-94z" fill="#ffffff" data-original="#000000" style="" class=""/><path d="m480.927 416.854c-15.1 0-431.724 0-450 0-16.542 0-30 13.458-30 30v35c0 16.542 13.458 30 30 30h450c16.542 0 30-13.458 30-30v-35c0-16.542-13.458-30-30-30z" fill="#ffffff" data-original="#000000" style="" class=""/><path d="m492.127 94.179c-231.074-94.483-224.891-91.956-225.057-92.023-7.13-2.853-15.057-2.911-22.391.042l-224.952 91.981c-11.423 4.596-18.8 15.514-18.8 27.831v38.845c0 16.542 13.458 30 30 30h450c16.542 0 30-13.458 30-30v-38.845c0-12.317-7.377-23.235-18.8-27.831zm-221.2 17.675c0 8.284-6.716 15-15 15s-15-6.716-15-15v-32c0-8.284 6.716-15 15-15s15 6.716 15 15z" fill="#ffffff" data-original="#000000" style="" class=""/><path d="m48.927 220.854h94v166h-94z" fill="#ffffff" data-original="#000000" style="" class=""/></g></g></svg>
