<?xml version="1.0"?>
<svg xmlns="http://www.w3.org/2000/svg" xmlns:xlink="http://www.w3.org/1999/xlink" xmlns:svgjs="http://svgjs.com/svgjs" version="1.1" width="512" height="512" x="0" y="0" viewBox="0 0 510.003 510.003" style="enable-background:new 0 0 512 512" xml:space="preserve" class=""><g><g xmlns="http://www.w3.org/2000/svg"><path d="m232.815 270h-97.814v40h73.353c6.249-14.521 14.518-27.976 24.461-40z" fill="#ffffff" data-original="#000000" style="" class=""/><path d="m494.834 368.289c-2.041-52.395-37.549-101.051-86.624-119.383-10.506-4.029-21.639-6.783-33.208-8.067-4.927-.547-9.93-.838-15-.838-74.439 0-135 60.561-135 135 0 27.732 8.409 53.534 22.806 75 1.478 2.204 3.022 4.361 4.624 6.471 24.987 33.316 65.891 53.808 107.571 53.529 74.439 0 135-60.561 135-135-.002-1.126-.116-5.6-.169-6.712zm-119.833 81.426v30.285h-30v-30h-30v-30h55c8.271 0 15-6.729 15-15s-6.729-15-15-15h-15c-24.813 0-45-20.187-45-45 0-21.376 14.986-39.305 35-43.866v-31.134h30v30h25v30h-45c-8.271 0-15 6.729-15 15s6.729 15 15 15h15c24.813 0 45 20.187 45 45 0 23.123-17.532 42.22-40 44.715z" fill="#ffffff" data-original="#000000" style="" class=""/><path d="m135.001 450h78.069c-6.406-12.5-11.266-25.917-14.321-40h-63.749v40z" fill="#ffffff" data-original="#000000" style="" class=""/><path d="m15.001 340h90v40h-90z" fill="#ffffff" data-original="#000000" style="" class=""/><path d="m15.001 270h90v40h-90z" fill="#ffffff" data-original="#000000" style="" class=""/><path d="m135.001 380h60.083c-.05-1.661-.083-3.327-.083-5 0-12.007 1.301-23.715 3.749-35h-63.749z" fill="#ffffff" data-original="#000000" style="" class=""/><path d="m265.243 240c26.833-18.891 59.521-30 94.758-30 5.057 0 10.058.242 15 .689v-210.689h-360v240zm-190.242-195h240v150h-240z" fill="#ffffff" data-original="#000000" style="" class=""/><path d="m15.001 410h90v40h-90z" fill="#ffffff" data-original="#000000" style="" class=""/><path d="m105.001 165h180v-90h-180zm30-60h30v30h-30z" fill="#ffffff" data-original="#000000" style="" class=""/></g></g></svg>
